<svg xmlns="http://www.w3.org/2000/svg" width="640" height="520" viewBox="0 0 640 520" font-family="Inter, Segoe UI, Helvetica, Arial, sans-serif">
<rect width="640" height="520" fill="#ffffff"/>

<text x="20" y="26" text-anchor="start" font-size="16" fill="#1f2937" font-weight="600">Three clusters</text>
<text x="20" y="45" text-anchor="start" font-size="12" fill="#6b7280">360 points colored by height</text>
<polygon points="103.07,416.09 334.63,488.87 528.93,402.13 297.37,329.34" fill="#e5e7eb" fill-opacity="0.35" stroke="#9ca3af" stroke-width="0.8"/>
<polygon points="103.07,416.09 297.37,329.34 297.37,105.13 103.07,191.87" fill="#e5e7eb" fill-opacity="0.35" stroke="#9ca3af" stroke-width="0.8"/>
<polygon points="297.37,329.34 528.93,402.13 528.93,177.91 297.37,105.13" fill="#e5e7eb" fill-opacity="0.35" stroke="#9ca3af" stroke-width="0.8"/>
<text x="87.67" y="430.03" text-anchor="middle" font-size="10" fill="#6b7280">-2</text>
<text x="144.93" y="448.03" text-anchor="middle" font-size="10" fill="#6b7280">0</text>
<text x="202.19" y="466.03" text-anchor="middle" font-size="10" fill="#6b7280">2</text>
<text x="259.45" y="484.02" text-anchor="middle" font-size="10" fill="#6b7280">4</text>
<text x="364.08" y="497.34" text-anchor="middle" font-size="10" fill="#6b7280">-2</text>
<text x="413" y="475.5" text-anchor="middle" font-size="10" fill="#6b7280">0</text>
<text x="461.92" y="453.66" text-anchor="middle" font-size="10" fill="#6b7280">2</text>
<text x="510.84" y="431.82" text-anchor="middle" font-size="10" fill="#6b7280">4</text>
<text x="95.07" y="419.14" text-anchor="end" font-size="10" fill="#6b7280">-2</text>
<text x="95.07" y="370.9" text-anchor="end" font-size="10" fill="#6b7280">0</text>
<text x="95.07" y="322.66" text-anchor="end" font-size="10" fill="#6b7280">2</text>
<text x="95.07" y="274.42" text-anchor="end" font-size="10" fill="#6b7280">4</text>
<text x="95.07" y="226.18" text-anchor="end" font-size="10" fill="#6b7280">6</text>
<g stroke="#9ca3af" stroke-width="0.5" stroke-opacity="0.7"><line x1="107.1" y1="417.35" x2="301.4" y2="330.61"/><line x1="301.4" y1="330.61" x2="301.4" y2="106.39"/><line x1="164.36" y1="435.35" x2="358.66" y2="348.61"/><line x1="358.66" y1="348.61" x2="358.66" y2="124.39"/><line x1="221.62" y1="453.35" x2="415.92" y2="366.61"/><line x1="415.92" y1="366.61" x2="415.92" y2="142.39"/><line x1="278.88" y1="471.35" x2="473.19" y2="384.61"/><line x1="473.19" y1="384.61" x2="473.19" y2="160.39"/><line x1="109.37" y1="413.28" x2="340.93" y2="486.06"/><line x1="109.37" y1="413.28" x2="109.37" y2="189.06"/><line x1="158.29" y1="391.44" x2="389.85" y2="464.22"/><line x1="158.29" y1="391.44" x2="158.29" y2="167.22"/><line x1="207.21" y1="369.6" x2="438.77" y2="442.38"/><line x1="207.21" y1="369.6" x2="207.21" y2="145.38"/><line x1="256.13" y1="347.76" x2="487.68" y2="420.54"/><line x1="256.13" y1="347.76" x2="256.13" y2="123.54"/><line x1="103.07" y1="415.64" x2="297.37" y2="328.89"/><line x1="297.37" y1="328.89" x2="528.93" y2="401.68"/><line x1="103.07" y1="367.4" x2="297.37" y2="280.65"/><line x1="297.37" y1="280.65" x2="528.93" y2="353.44"/><line x1="103.07" y1="319.16" x2="297.37" y2="232.41"/><line x1="297.37" y1="232.41" x2="528.93" y2="305.2"/><line x1="103.07" y1="270.92" x2="297.37" y2="184.17"/><line x1="297.37" y1="184.17" x2="528.93" y2="256.96"/><line x1="103.07" y1="222.68" x2="297.37" y2="135.93"/><line x1="297.37" y1="135.93" x2="528.93" y2="208.72"/></g>
<text x="168.33" y="479.03" text-anchor="middle" font-size="12" fill="#1f2937" font-weight="600">x</text>
<text x="491.99" y="468.43" text-anchor="middle" font-size="12" fill="#1f2937" font-weight="600">y</text>
<text x="59.07" y="303.98" text-anchor="middle" font-size="12" fill="#1f2937" font-weight="600">z</text>
<g stroke="#ffffff" stroke-width="0.5"><circle cx="337.6" cy="167.56" r="3.2" fill="rgb(229,114,91)"/><circle cx="308.1" cy="207.78" r="3.2" fill="rgb(245,176,150)"/><circle cx="357.3" cy="208.12" r="3.2" fill="rgb(245,176,149)"/><circle cx="354.5" cy="184.59" r="3.2" fill="rgb(239,141,113)"/><circle cx="413.77" cy="221.11" r="3.2" fill="rgb(245,189,165)"/><circle cx="295.32" cy="211.88" r="3.2" fill="rgb(245,175,148)"/><circle cx="194.92" cy="366.74" r="3.2" fill="rgb(88,117,224)"/><circle cx="265.96" cy="343.43" r="3.2" fill="rgb(119,153,244)"/><circle cx="359.22" cy="212.03" r="3.2" fill="rgb(244,174,147)"/><circle cx="343.02" cy="200.47" r="3.2" fill="rgb(244,159,129)"/><circle cx="351.76" cy="203.53" r="3.2" fill="rgb(244,163,133)"/><circle cx="394" cy="215.76" r="3.2" fill="rgb(245,178,152)"/><circle cx="349.72" cy="214.43" r="3.2" fill="rgb(245,175,148)"/><circle cx="362.53" cy="214.97" r="3.2" fill="rgb(244,174,147)"/><circle cx="184.31" cy="337.15" r="3.2" fill="rgb(131,166,250)"/><circle cx="303.49" cy="217.34" r="3.2" fill="rgb(245,177,150)"/><circle cx="347.36" cy="228.53" r="3.2" fill="rgb(245,191,167)"/><circle cx="373.09" cy="230.65" r="3.2" fill="rgb(245,193,170)"/><circle cx="202.5" cy="346.49" r="3.2" fill="rgb(120,154,244)"/><circle cx="333.22" cy="174.11" r="3.2" fill="rgb(226,107,86)"/><circle cx="351.69" cy="198.32" r="3.2" fill="rgb(242,150,120)"/><circle cx="287.36" cy="213.82" r="3.2" fill="rgb(244,170,142)"/><circle cx="333.23" cy="170.75" r="3.2" fill="rgb(223,98,79)"/><circle cx="320.95" cy="162.29" r="3.2" fill="rgb(212,75,68)"/><circle cx="206.84" cy="340.4" r="3.2" fill="rgb(131,165,249)"/><circle cx="420.12" cy="183.79" r="3.2" fill="rgb(231,121,97)"/><circle cx="372.57" cy="199.3" r="3.2" fill="rgb(242,148,118)"/><circle cx="331.47" cy="170.11" r="3.2" fill="rgb(222,96,77)"/><circle cx="288.68" cy="191.24" r="3.2" fill="rgb(236,133,107)"/><circle cx="342.85" cy="160.04" r="3.2" fill="rgb(209,67,65)"/><circle cx="327.87" cy="202.74" r="3.2" fill="rgb(244,153,123)"/><circle cx="220.17" cy="389.65" r="3.2" fill="rgb(70,91,204)"/><circle cx="373.44" cy="237.53" r="3.2" fill="rgb(244,197,175)"/><circle cx="195.85" cy="359.94" r="3.2" fill="rgb(107,140,238)"/><circle cx="220.78" cy="345.74" r="3.2" fill="rgb(127,161,247)"/><circle cx="204.56" cy="361.78" r="3.2" fill="rgb(105,138,237)"/><circle cx="193.62" cy="344.89" r="3.2" fill="rgb(128,162,248)"/><circle cx="313.11" cy="225.15" r="3.2" fill="rgb(245,180,154)"/><circle cx="190.38" cy="357.33" r="3.2" fill="rgb(112,145,241)"/><circle cx="390.08" cy="191.97" r="3.2" fill="rgb(235,130,104)"/><circle cx="257.77" cy="334.19" r="3.2" fill="rgb(143,178,254)"/><circle cx="345.46" cy="220.99" r="3.2" fill="rgb(244,174,147)"/><circle cx="354.41" cy="215.48" r="3.2" fill="rgb(244,166,138)"/><circle cx="378.23" cy="199.48" r="3.2" fill="rgb(240,142,114)"/><circle cx="210.45" cy="401.8" r="3.2" fill="rgb(59,76,192)"/><circle cx="179.36" cy="335.88" r="3.2" fill="rgb(142,177,254)"/><circle cx="355.42" cy="188.77" r="3.2" fill="rgb(232,123,98)"/><circle cx="317.23" cy="215.21" r="3.2" fill="rgb(244,165,136)"/><circle cx="348.47" cy="224.52" r="3.2" fill="rgb(245,177,151)"/><circle cx="195.69" cy="346.7" r="3.2" fill="rgb(128,162,248)"/><circle cx="364.58" cy="221.76" r="3.2" fill="rgb(244,173,146)"/><circle cx="299.33" cy="252.86" r="3.2" fill="rgb(235,206,193)"/><circle cx="245.63" cy="361.12" r="3.2" fill="rgb(110,143,240)"/><circle cx="222.06" cy="351.87" r="3.2" fill="rgb(122,156,245)"/><circle cx="387.91" cy="196.85" r="3.2" fill="rgb(237,135,108)"/><circle cx="182.85" cy="377.49" r="3.2" fill="rgb(90,119,225)"/><circle cx="208.9" cy="339.25" r="3.2" fill="rgb(140,175,253)"/><circle cx="383.65" cy="181.87" r="3.2" fill="rgb(226,108,86)"/><circle cx="395.44" cy="201.63" r="3.2" fill="rgb(240,143,114)"/><circle cx="243.34" cy="385.01" r="3.2" fill="rgb(82,107,216)"/><circle cx="367.57" cy="248.27" r="3.2" fill="rgb(240,201,183)"/><circle cx="377.19" cy="247.83" r="3.2" fill="rgb(240,201,182)"/><circle cx="186.6" cy="311.98" r="3.2" fill="rgb(178,203,250)"/><circle cx="399.28" cy="219.87" r="3.2" fill="rgb(244,167,139)"/><circle cx="234.01" cy="340.77" r="3.2" fill="rgb(140,175,254)"/><circle cx="203.33" cy="362.91" r="3.2" fill="rgb(111,144,240)"/><circle cx="249.27" cy="362.96" r="3.2" fill="rgb(111,144,240)"/><circle cx="140.04" cy="361.28" r="3.2" fill="rgb(114,147,241)"/><circle cx="217.8" cy="363.92" r="3.2" fill="rgb(110,143,240)"/><circle cx="228.08" cy="376.11" r="3.2" fill="rgb(95,126,231)"/><circle cx="231.81" cy="337.68" r="3.2" fill="rgb(145,179,254)"/><circle cx="366.15" cy="205.36" r="3.2" fill="rgb(241,145,116)"/><circle cx="361.47" cy="211.43" r="3.2" fill="rgb(244,155,124)"/><circle cx="377.12" cy="256.11" r="3.2" fill="rgb(236,206,192)"/><circle cx="405.96" cy="188.32" r="3.2" fill="rgb(229,114,91)"/><circle cx="183.44" cy="346.05" r="3.2" fill="rgb(135,170,251)"/><circle cx="201.73" cy="320.03" r="3.2" fill="rgb(170,197,251)"/><circle cx="307.53" cy="210.75" r="3.2" fill="rgb(244,153,122)"/><circle cx="389.53" cy="209.06" r="3.2" fill="rgb(242,150,120)"/><circle cx="348.47" cy="208.84" r="3.2" fill="rgb(242,149,119)"/><circle cx="357.09" cy="190.34" r="3.2" fill="rgb(230,116,93)"/><circle cx="224.9" cy="375.74" r="3.2" fill="rgb(97,129,233)"/><circle cx="375.77" cy="228.1" r="3.2" fill="rgb(244,175,148)"/><circle cx="300.28" cy="230.28" r="3.2" fill="rgb(245,177,151)"/><circle cx="272.07" cy="328.1" r="3.2" fill="rgb(160,190,252)"/><circle cx="357.49" cy="217.85" r="3.2" fill="rgb(244,161,131)"/><circle cx="358.02" cy="201.63" r="3.2" fill="rgb(237,135,108)"/><circle cx="340.22" cy="186.97" r="3.2" fill="rgb(227,109,87)"/><circle cx="223.05" cy="378.08" r="3.2" fill="rgb(95,126,231)"/><circle cx="206" cy="317.96" r="3.2" fill="rgb(174,201,250)"/><circle cx="398.57" cy="232.34" r="3.2" fill="rgb(245,179,153)"/><circle cx="202.59" cy="341.85" r="3.2" fill="rgb(143,177,254)"/><circle cx="404.45" cy="297.85" r="3.2" fill="rgb(198,213,238)"/><circle cx="369.1" cy="201.27" r="3.2" fill="rgb(236,133,107)"/><circle cx="371.73" cy="213.68" r="3.2" fill="rgb(244,155,124)"/><circle cx="339.91" cy="147.86" r="3.2" fill="rgb(180,4,38)"/><circle cx="333.59" cy="203.8" r="3.2" fill="rgb(238,137,110)"/><circle cx="365.15" cy="212.16" r="3.2" fill="rgb(243,152,122)"/><circle cx="232.87" cy="357.84" r="3.2" fill="rgb(122,156,245)"/><circle cx="204.27" cy="354.66" r="3.2" fill="rgb(127,161,247)"/><circle cx="186.53" cy="337.1" r="3.2" fill="rgb(150,183,253)"/><circle cx="220.89" cy="369" r="3.2" fill="rgb(108,141,239)"/><circle cx="346.56" cy="199.47" r="3.2" fill="rgb(234,129,103)"/><circle cx="391.57" cy="212.29" r="3.2" fill="rgb(243,151,121)"/><circle cx="327.42" cy="245.88" r="3.2" fill="rgb(245,195,171)"/><circle cx="361.58" cy="203.85" r="3.2" fill="rgb(237,135,108)"/><circle cx="233.32" cy="381.79" r="3.2" fill="rgb(93,123,228)"/><circle cx="415.96" cy="236.34" r="3.2" fill="rgb(245,182,156)"/><circle cx="378.61" cy="228.68" r="3.2" fill="rgb(244,172,144)"/><circle cx="221.05" cy="315.75" r="3.2" fill="rgb(180,205,249)"/><circle cx="221.76" cy="360.73" r="3.2" fill="rgb(121,155,245)"/><circle cx="244.43" cy="367.58" r="3.2" fill="rgb(112,145,241)"/><circle cx="344.98" cy="255.25" r="3.2" fill="rgb(240,201,183)"/><circle cx="266.77" cy="349.49" r="3.2" fill="rgb(137,172,252)"/><circle cx="348.01" cy="254.2" r="3.2" fill="rgb(241,200,181)"/><circle cx="201.47" cy="344.77" r="3.2" fill="rgb(144,178,254)"/><circle cx="341.08" cy="187.04" r="3.2" fill="rgb(224,101,81)"/><circle cx="232.36" cy="348.75" r="3.2" fill="rgb(139,174,253)"/><circle cx="385" cy="204.76" r="3.2" fill="rgb(236,132,106)"/><circle cx="367.76" cy="225.32" r="3.2" fill="rgb(244,165,136)"/><circle cx="247.72" cy="366.29" r="3.2" fill="rgb(116,150,242)"/><circle cx="332.92" cy="190" r="3.2" fill="rgb(226,106,85)"/><circle cx="363.21" cy="214.84" r="3.2" fill="rgb(242,150,120)"/><circle cx="209.7" cy="348.11" r="3.2" fill="rgb(141,176,254)"/><circle cx="350.06" cy="168.32" r="3.2" fill="rgb(201,49,57)"/><circle cx="343.26" cy="240.37" r="3.2" fill="rgb(245,183,158)"/><circle cx="379.14" cy="216.25" r="3.2" fill="rgb(243,151,121)"/><circle cx="160.8" cy="373.94" r="3.2" fill="rgb(108,141,239)"/><circle cx="339.63" cy="243.67" r="3.2" fill="rgb(245,186,161)"/><circle cx="344.15" cy="216.57" r="3.2" fill="rgb(242,150,120)"/><circle cx="409.41" cy="234.2" r="3.2" fill="rgb(244,174,146)"/><circle cx="258.45" cy="376.31" r="3.2" fill="rgb(106,138,237)"/><circle cx="205.55" cy="378.01" r="3.2" fill="rgb(104,136,237)"/><circle cx="407.26" cy="225.21" r="3.2" fill="rgb(244,161,132)"/><circle cx="253.29" cy="355.44" r="3.2" fill="rgb(134,168,251)"/><circle cx="412.85" cy="157.81" r="3.2" fill="rgb(184,13,42)"/><circle cx="211.71" cy="344.13" r="3.2" fill="rgb(149,182,253)"/><circle cx="223.08" cy="378.77" r="3.2" fill="rgb(104,136,237)"/><circle cx="201.15" cy="381.62" r="3.2" fill="rgb(101,133,235)"/><circle cx="214.03" cy="369.98" r="3.2" fill="rgb(117,150,243)"/><circle cx="226.64" cy="371.58" r="3.2" fill="rgb(115,148,242)"/><circle cx="144.71" cy="413.51" r="3.2" fill="rgb(64,82,197)"/><circle cx="408.44" cy="221.59" r="3.2" fill="rgb(244,154,123)"/><circle cx="334.12" cy="196.07" r="3.2" fill="rgb(227,108,86)"/><circle cx="364.1" cy="217.56" r="3.2" fill="rgb(241,146,117)"/><circle cx="201.96" cy="411.05" r="3.2" fill="rgb(67,87,201)"/><circle cx="359.6" cy="220.38" r="3.2" fill="rgb(243,151,120)"/><circle cx="341.77" cy="224.6" r="3.2" fill="rgb(244,157,126)"/><circle cx="195.94" cy="391.81" r="3.2" fill="rgb(91,120,226)"/><circle cx="161.68" cy="341.76" r="3.2" fill="rgb(156,187,252)"/><circle cx="400.31" cy="194.29" r="3.2" fill="rgb(225,103,83)"/><circle cx="344.31" cy="217.6" r="3.2" fill="rgb(240,144,115)"/><circle cx="327.29" cy="188.06" r="3.2" fill="rgb(219,89,74)"/><circle cx="363.96" cy="197.6" r="3.2" fill="rgb(227,109,87)"/><circle cx="343.35" cy="226.62" r="3.2" fill="rgb(244,158,128)"/><circle cx="204.19" cy="343.24" r="3.2" fill="rgb(155,186,252)"/><circle cx="255.61" cy="354.88" r="3.2" fill="rgb(140,175,253)"/><circle cx="384.66" cy="191.03" r="3.2" fill="rgb(222,96,77)"/><circle cx="360.23" cy="198.64" r="3.2" fill="rgb(227,110,88)"/><circle cx="197.57" cy="405.06" r="3.2" fill="rgb(76,100,211)"/><circle cx="182.94" cy="359.26" r="3.2" fill="rgb(134,169,251)"/><circle cx="331.28" cy="243.34" r="3.2" fill="rgb(245,179,153)"/><circle cx="267.09" cy="367.24" r="3.2" fill="rgb(125,159,246)"/><circle cx="333.02" cy="226.76" r="3.2" fill="rgb(244,157,126)"/><circle cx="204.88" cy="318.85" r="3.2" fill="rgb(188,209,246)"/><circle cx="180.34" cy="409.95" r="3.2" fill="rgb(72,94,206)"/><circle cx="201.94" cy="378.83" r="3.2" fill="rgb(111,144,240)"/><circle cx="225.65" cy="350.57" r="3.2" fill="rgb(148,181,253)"/><circle cx="385.63" cy="242.21" r="3.2" fill="rgb(245,175,148)"/><circle cx="397.45" cy="210.27" r="3.2" fill="rgb(233,126,101)"/><circle cx="206.93" cy="371.93" r="3.2" fill="rgb(121,154,245)"/><circle cx="200" cy="391.98" r="3.2" fill="rgb(95,126,231)"/><circle cx="343.77" cy="217.59" r="3.2" fill="rgb(238,138,110)"/><circle cx="279.97" cy="199.31" r="3.2" fill="rgb(226,105,84)"/><circle cx="215.12" cy="386.04" r="3.2" fill="rgb(103,135,236)"/><circle cx="228.94" cy="332.14" r="3.2" fill="rgb(174,201,250)"/><circle cx="185.61" cy="347.38" r="3.2" fill="rgb(154,186,252)"/><circle cx="197.87" cy="346.53" r="3.2" fill="rgb(155,187,252)"/><circle cx="369.39" cy="212.73" r="3.2" fill="rgb(234,129,103)"/><circle cx="212.83" cy="399.78" r="3.2" fill="rgb(86,114,222)"/><circle cx="370.19" cy="232.4" r="3.2" fill="rgb(244,160,130)"/><circle cx="316.67" cy="206.35" r="3.2" fill="rgb(230,116,93)"/><circle cx="353.34" cy="213.22" r="3.2" fill="rgb(234,127,102)"/><circle cx="174.64" cy="407.41" r="3.2" fill="rgb(79,103,213)"/><circle cx="343.36" cy="235.71" r="3.2" fill="rgb(244,163,134)"/><circle cx="440.55" cy="215.06" r="3.2" fill="rgb(235,129,104)"/><circle cx="196.39" cy="343.88" r="3.2" fill="rgb(162,191,252)"/><circle cx="344.55" cy="234.72" r="3.2" fill="rgb(244,161,132)"/><circle cx="223.68" cy="384.71" r="3.2" fill="rgb(108,141,239)"/><circle cx="208.91" cy="313.87" r="3.2" fill="rgb(199,213,238)"/><circle cx="317.78" cy="336.71" r="3.2" fill="rgb(172,199,250)"/><circle cx="255.35" cy="398.57" r="3.2" fill="rgb(91,120,226)"/><circle cx="403.62" cy="222.62" r="3.2" fill="rgb(239,142,113)"/><circle cx="216.57" cy="372.84" r="3.2" fill="rgb(125,159,246)"/><circle cx="360.95" cy="306.33" r="3.2" fill="rgb(209,217,230)"/><circle cx="181.02" cy="365.81" r="3.2" fill="rgb(135,169,251)"/><circle cx="204.37" cy="326.66" r="3.2" fill="rgb(186,209,247)"/><circle cx="201" cy="347.52" r="3.2" fill="rgb(159,189,252)"/><circle cx="183.38" cy="363.63" r="3.2" fill="rgb(138,173,253)"/><circle cx="223.01" cy="338.09" r="3.2" fill="rgb(172,199,250)"/><circle cx="386.59" cy="207.35" r="3.2" fill="rgb(228,111,89)"/><circle cx="277.93" cy="349.12" r="3.2" fill="rgb(158,189,252)"/><circle cx="215.45" cy="365.11" r="3.2" fill="rgb(137,172,252)"/><circle cx="207.45" cy="364.84" r="3.2" fill="rgb(138,172,252)"/><circle cx="350.29" cy="358.35" r="3.2" fill="rgb(146,180,253)"/><circle cx="335.65" cy="203.95" r="3.2" fill="rgb(225,104,83)"/><circle cx="255.53" cy="393.24" r="3.2" fill="rgb(101,133,235)"/><circle cx="235.25" cy="347.7" r="3.2" fill="rgb(161,191,252)"/><circle cx="205.31" cy="389.1" r="3.2" fill="rgb(107,139,238)"/><circle cx="378.19" cy="215.54" r="3.2" fill="rgb(232,123,98)"/><circle cx="257.78" cy="342.99" r="3.2" fill="rgb(168,196,251)"/><circle cx="337.2" cy="224.98" r="3.2" fill="rgb(238,139,111)"/><circle cx="251.81" cy="346.04" r="3.2" fill="rgb(165,194,251)"/><circle cx="404.25" cy="233.66" r="3.2" fill="rgb(244,153,122)"/><circle cx="349.46" cy="287.13" r="3.2" fill="rgb(230,211,202)"/><circle cx="205.06" cy="408.68" r="3.2" fill="rgb(85,112,220)"/><circle cx="246.27" cy="358.92" r="3.2" fill="rgb(150,182,253)"/><circle cx="370.7" cy="314.53" r="3.2" fill="rgb(205,215,233)"/><circle cx="346.13" cy="243.77" r="3.2" fill="rgb(244,165,136)"/><circle cx="252.43" cy="358.48" r="3.2" fill="rgb(151,184,253)"/><circle cx="193.96" cy="366.56" r="3.2" fill="rgb(141,176,254)"/><circle cx="308.66" cy="341.33" r="3.2" fill="rgb(174,201,250)"/><circle cx="227.33" cy="378.74" r="3.2" fill="rgb(125,159,247)"/><circle cx="229.41" cy="328.76" r="3.2" fill="rgb(190,210,244)"/><circle cx="377.57" cy="299.27" r="3.2" fill="rgb(223,219,218)"/><circle cx="344.66" cy="347.87" r="3.2" fill="rgb(166,195,251)"/><circle cx="229.15" cy="343.38" r="3.2" fill="rgb(173,200,250)"/><circle cx="329.59" cy="193.09" r="3.2" fill="rgb(206,61,62)"/><circle cx="226.14" cy="345.16" r="3.2" fill="rgb(172,199,250)"/><circle cx="368.04" cy="319.98" r="3.2" fill="rgb(202,214,235)"/><circle cx="215.85" cy="350.01" r="3.2" fill="rgb(166,195,251)"/><circle cx="310.66" cy="274.72" r="3.2" fill="rgb(243,198,178)"/><circle cx="171.48" cy="359.82" r="3.2" fill="rgb(154,185,253)"/><circle cx="387.04" cy="335.31" r="3.2" fill="rgb(186,209,247)"/><circle cx="189.62" cy="417.3" r="3.2" fill="rgb(80,106,215)"/><circle cx="364.44" cy="257.59" r="3.2" fill="rgb(245,177,150)"/><circle cx="327.27" cy="230.02" r="3.2" fill="rgb(237,136,109)"/><circle cx="205.6" cy="356.87" r="3.2" fill="rgb(159,190,252)"/><circle cx="348.34" cy="346.4" r="3.2" fill="rgb(173,200,250)"/><circle cx="183.58" cy="364.39" r="3.2" fill="rgb(150,183,253)"/><circle cx="325.74" cy="296.22" r="3.2" fill="rgb(228,213,206)"/><circle cx="210.68" cy="372.7" r="3.2" fill="rgb(141,176,254)"/><circle cx="277.82" cy="362.47" r="3.2" fill="rgb(154,186,252)"/><circle cx="350.09" cy="324.64" r="3.2" fill="rgb(202,214,235)"/><circle cx="378.21" cy="319.06" r="3.2" fill="rgb(209,217,230)"/><circle cx="370.35" cy="331.03" r="3.2" fill="rgb(195,212,240)"/><circle cx="203.27" cy="380.88" r="3.2" fill="rgb(132,166,250)"/><circle cx="383.83" cy="295.7" r="3.2" fill="rgb(230,211,202)"/><circle cx="291.95" cy="327.67" r="3.2" fill="rgb(200,213,237)"/><circle cx="399.25" cy="300.43" r="3.2" fill="rgb(227,214,208)"/><circle cx="331.4" cy="315.25" r="3.2" fill="rgb(214,219,226)"/><circle cx="349.81" cy="364.95" r="3.2" fill="rgb(153,185,253)"/><circle cx="412.91" cy="236.33" r="3.2" fill="rgb(239,140,112)"/><circle cx="367.48" cy="297.38" r="3.2" fill="rgb(230,212,203)"/><circle cx="193.22" cy="379.77" r="3.2" fill="rgb(135,169,251)"/><circle cx="233.48" cy="351.96" r="3.2" fill="rgb(172,199,250)"/><circle cx="350.02" cy="338.42" r="3.2" fill="rgb(190,210,245)"/><circle cx="334.49" cy="317.02" r="3.2" fill="rgb(214,219,226)"/><circle cx="369.86" cy="341.5" r="3.2" fill="rgb(187,209,247)"/><circle cx="372.53" cy="305.28" r="3.2" fill="rgb(226,216,212)"/><circle cx="372.25" cy="309.28" r="3.2" fill="rgb(223,219,217)"/><circle cx="324.35" cy="359.27" r="3.2" fill="rgb(165,194,251)"/><circle cx="365.14" cy="302.41" r="3.2" fill="rgb(228,213,206)"/><circle cx="371.75" cy="286.49" r="3.2" fill="rgb(240,201,183)"/><circle cx="235.39" cy="324.22" r="3.2" fill="rgb(208,217,231)"/><circle cx="368.43" cy="327.33" r="3.2" fill="rgb(205,216,233)"/><circle cx="370.54" cy="327.42" r="3.2" fill="rgb(206,216,233)"/><circle cx="340.06" cy="314.28" r="3.2" fill="rgb(221,221,221)"/><circle cx="372.65" cy="359.21" r="3.2" fill="rgb(168,196,251)"/><circle cx="171.91" cy="391.77" r="3.2" fill="rgb(126,159,247)"/><circle cx="334.67" cy="316.04" r="3.2" fill="rgb(220,221,222)"/><circle cx="363.09" cy="227.95" r="3.2" fill="rgb(229,114,91)"/><circle cx="360.72" cy="318.44" r="3.2" fill="rgb(218,220,223)"/><circle cx="330.5" cy="357.27" r="3.2" fill="rgb(173,200,250)"/><circle cx="341.18" cy="339.11" r="3.2" fill="rgb(196,212,240)"/><circle cx="362.37" cy="346.13" r="3.2" fill="rgb(188,209,246)"/><circle cx="302.82" cy="382.04" r="3.2" fill="rgb(142,177,254)"/><circle cx="352.1" cy="354.94" r="3.2" fill="rgb(178,203,250)"/><circle cx="364.71" cy="326.23" r="3.2" fill="rgb(212,218,228)"/><circle cx="352.25" cy="324.64" r="3.2" fill="rgb(214,218,227)"/><circle cx="371.49" cy="343.03" r="3.2" fill="rgb(193,211,242)"/><circle cx="359.91" cy="325.26" r="3.2" fill="rgb(213,218,227)"/><circle cx="358.17" cy="355.72" r="3.2" fill="rgb(178,204,250)"/><circle cx="219.52" cy="409.35" r="3.2" fill="rgb(107,140,238)"/><circle cx="320.23" cy="321.95" r="3.2" fill="rgb(217,220,224)"/><circle cx="321.15" cy="306.57" r="3.2" fill="rgb(230,211,202)"/><circle cx="338.96" cy="363.64" r="3.2" fill="rgb(169,196,251)"/><circle cx="161.32" cy="317.65" r="3.2" fill="rgb(222,220,218)"/><circle cx="397.24" cy="270.56" r="3.2" fill="rgb(244,175,148)"/><circle cx="357.21" cy="334.36" r="3.2" fill="rgb(205,215,233)"/><circle cx="412.09" cy="321.64" r="3.2" fill="rgb(219,220,223)"/><circle cx="366.83" cy="303.7" r="3.2" fill="rgb(233,208,197)"/><circle cx="361.16" cy="301.87" r="3.2" fill="rgb(235,207,194)"/><circle cx="367.08" cy="291.49" r="3.2" fill="rgb(243,198,177)"/><circle cx="364.67" cy="326.9" r="3.2" fill="rgb(215,219,226)"/><circle cx="352.43" cy="327.65" r="3.2" fill="rgb(214,219,226)"/><circle cx="409.76" cy="346.18" r="3.2" fill="rgb(194,211,242)"/><circle cx="412.38" cy="340.19" r="3.2" fill="rgb(201,214,236)"/><circle cx="348.92" cy="270.18" r="3.2" fill="rgb(244,170,142)"/><circle cx="372.94" cy="293.79" r="3.2" fill="rgb(243,198,178)"/><circle cx="394.99" cy="316.43" r="3.2" fill="rgb(226,216,211)"/><circle cx="394.11" cy="333.49" r="3.2" fill="rgb(209,217,230)"/><circle cx="330.8" cy="324.62" r="3.2" fill="rgb(220,221,222)"/><circle cx="382.72" cy="343.18" r="3.2" fill="rgb(200,214,237)"/><circle cx="366.01" cy="309.9" r="3.2" fill="rgb(232,210,199)"/><circle cx="350.93" cy="347.7" r="3.2" fill="rgb(195,212,241)"/><circle cx="283.5" cy="333.99" r="3.2" fill="rgb(211,218,228)"/><circle cx="333.42" cy="320.39" r="3.2" fill="rgb(225,217,213)"/><circle cx="341.83" cy="340.05" r="3.2" fill="rgb(205,215,233)"/><circle cx="335.72" cy="336.34" r="3.2" fill="rgb(209,217,230)"/><circle cx="362.12" cy="354.07" r="3.2" fill="rgb(189,210,245)"/><circle cx="337.78" cy="375.02" r="3.2" fill="rgb(163,192,251)"/><circle cx="432.63" cy="326.51" r="3.2" fill="rgb(221,221,221)"/><circle cx="376.75" cy="317.88" r="3.2" fill="rgb(228,214,208)"/><circle cx="368.71" cy="360.39" r="3.2" fill="rgb(183,207,249)"/><circle cx="353.75" cy="347.83" r="3.2" fill="rgb(198,213,238)"/><circle cx="376.52" cy="307.94" r="3.2" fill="rgb(236,206,192)"/><circle cx="387.06" cy="342.66" r="3.2" fill="rgb(204,215,234)"/><circle cx="341.86" cy="326" r="3.2" fill="rgb(222,219,218)"/><circle cx="329.19" cy="337.86" r="3.2" fill="rgb(210,217,229)"/><circle cx="388.33" cy="320.39" r="3.2" fill="rgb(227,215,209)"/><circle cx="395.28" cy="361.59" r="3.2" fill="rgb(183,208,249)"/><circle cx="376.26" cy="318.64" r="3.2" fill="rgb(228,213,206)"/><circle cx="345.32" cy="332.44" r="3.2" fill="rgb(217,220,224)"/><circle cx="360.23" cy="342.46" r="3.2" fill="rgb(207,216,231)"/><circle cx="412.93" cy="315.7" r="3.2" fill="rgb(232,210,199)"/><circle cx="400.96" cy="354.36" r="3.2" fill="rgb(194,212,241)"/><circle cx="388.12" cy="316.72" r="3.2" fill="rgb(232,210,200)"/><circle cx="363.1" cy="316.38" r="3.2" fill="rgb(232,209,198)"/><circle cx="378.72" cy="306.32" r="3.2" fill="rgb(240,201,183)"/><circle cx="334.7" cy="317.4" r="3.2" fill="rgb(232,210,199)"/><circle cx="280.62" cy="367.68" r="3.2" fill="rgb(181,206,249)"/><circle cx="434.25" cy="330.7" r="3.2" fill="rgb(222,220,218)"/><circle cx="348.21" cy="381.53" r="3.2" fill="rgb(162,192,252)"/><circle cx="319.18" cy="361.51" r="3.2" fill="rgb(188,210,246)"/><circle cx="413.27" cy="347.57" r="3.2" fill="rgb(204,215,234)"/><circle cx="338.04" cy="311.49" r="3.2" fill="rgb(237,204,189)"/><circle cx="363.97" cy="316.99" r="3.2" fill="rgb(233,208,196)"/><circle cx="374.48" cy="335.85" r="3.2" fill="rgb(219,220,222)"/><circle cx="418.86" cy="328.59" r="3.2" fill="rgb(225,217,213)"/><circle cx="373.87" cy="342.96" r="3.2" fill="rgb(212,218,228)"/><circle cx="345.77" cy="335.96" r="3.2" fill="rgb(221,221,221)"/><circle cx="369.67" cy="329.32" r="3.2" fill="rgb(226,216,211)"/><circle cx="370.01" cy="311.07" r="3.2" fill="rgb(239,202,184)"/><circle cx="346.26" cy="326.59" r="3.2" fill="rgb(228,214,207)"/><circle cx="379.36" cy="368.26" r="3.2" fill="rgb(187,209,247)"/><circle cx="338.69" cy="327.67" r="3.2" fill="rgb(229,213,206)"/><circle cx="354.74" cy="344.17" r="3.2" fill="rgb(214,219,226)"/><circle cx="419.35" cy="289" r="3.2" fill="rgb(244,174,147)"/><circle cx="324.98" cy="331.1" r="3.2" fill="rgb(227,215,209)"/><circle cx="360.2" cy="326.13" r="3.2" fill="rgb(232,210,199)"/><circle cx="356.28" cy="315.47" r="3.2" fill="rgb(240,201,183)"/><circle cx="343.52" cy="354.71" r="3.2" fill="rgb(207,216,232)"/><circle cx="279.41" cy="354.49" r="3.2" fill="rgb(208,216,231)"/><circle cx="360.28" cy="326.28" r="3.2" fill="rgb(233,208,196)"/><circle cx="362.33" cy="351.7" r="3.2" fill="rgb(212,218,228)"/><circle cx="345.12" cy="349.54" r="3.2" fill="rgb(218,220,223)"/><circle cx="328.36" cy="329.09" r="3.2" fill="rgb(236,206,192)"/><circle cx="353.54" cy="343.87" r="3.2" fill="rgb(225,217,213)"/><circle cx="315.38" cy="319.27" r="3.2" fill="rgb(245,184,158)"/></g>
</svg>
