<svg xmlns="http://www.w3.org/2000/svg" width="640" height="520" viewBox="0 0 640 520" font-family="Inter, Segoe UI, Helvetica, Arial, sans-serif">
<style>.pt:hover{stroke:#1f2937;stroke-width:1.6px;stroke-opacity:1}.bar:hover{fill-opacity:1}.series:hover>path{stroke-width:3.5px}.pt,.bar,.boxplot{cursor:crosshair}.boxplot:hover{fill-opacity:0.42}</style>
<rect width="640" height="520" fill="#ffffff"/>

<text x="20" y="26" text-anchor="start" font-size="16" fill="#1f2937" font-weight="600">Rotational vector field</text>
<text x="20" y="45" text-anchor="start" font-size="12" fill="#6b7280">25 samples · v(x, y, z) = (-y, x, 0.35)</text>
<polygon points="102.55,398.51 304.81,503.97 529.45,409.01 327.19,303.55" fill="#e5e7eb" fill-opacity="0.35" stroke="#9ca3af" stroke-width="0.8"/>
<polygon points="102.55,398.51 327.19,303.55 327.19,90.03 102.55,184.99" fill="#e5e7eb" fill-opacity="0.35" stroke="#9ca3af" stroke-width="0.8"/>
<polygon points="327.19,303.55 529.45,409.01 529.45,195.49 327.19,90.03" fill="#e5e7eb" fill-opacity="0.35" stroke="#9ca3af" stroke-width="0.8"/>
<text x="102.21" y="423.54" text-anchor="middle" font-size="10" fill="#6b7280">-2</text>
<text x="141.71" y="444.14" text-anchor="middle" font-size="10" fill="#6b7280">-1</text>
<text x="181.22" y="464.73" text-anchor="middle" font-size="10" fill="#6b7280">0</text>
<text x="220.72" y="485.33" text-anchor="middle" font-size="10" fill="#6b7280">1</text>
<text x="260.23" y="505.93" text-anchor="middle" font-size="10" fill="#6b7280">2</text>
<text x="349.61" y="508.13" text-anchor="middle" font-size="10" fill="#6b7280">-2</text>
<text x="393.48" y="489.58" text-anchor="middle" font-size="10" fill="#6b7280">-1</text>
<text x="437.36" y="471.04" text-anchor="middle" font-size="10" fill="#6b7280">0</text>
<text x="481.23" y="452.49" text-anchor="middle" font-size="10" fill="#6b7280">1</text>
<text x="525.11" y="433.94" text-anchor="middle" font-size="10" fill="#6b7280">2</text>
<text x="94.55" y="402.01" text-anchor="end" font-size="10" fill="#6b7280">0.00</text>
<text x="94.55" y="358.43" text-anchor="end" font-size="10" fill="#6b7280">0.02</text>
<text x="94.55" y="314.86" text-anchor="end" font-size="10" fill="#6b7280">0.04</text>
<text x="94.55" y="271.28" text-anchor="end" font-size="10" fill="#6b7280">0.06</text>
<text x="94.55" y="227.71" text-anchor="end" font-size="10" fill="#6b7280">0.08</text>
<g stroke="#9ca3af" stroke-width="0.5" stroke-opacity="0.7"><line x1="124.67" y1="410.04" x2="349.31" y2="315.08"/><line x1="349.31" y1="315.08" x2="349.31" y2="101.57"/><line x1="164.18" y1="430.64" x2="388.81" y2="335.68"/><line x1="388.81" y1="335.68" x2="388.81" y2="122.16"/><line x1="203.68" y1="451.24" x2="428.32" y2="356.28"/><line x1="428.32" y1="356.28" x2="428.32" y2="142.76"/><line x1="243.19" y1="471.84" x2="467.82" y2="376.88"/><line x1="467.82" y1="376.88" x2="467.82" y2="163.36"/><line x1="282.69" y1="492.43" x2="507.33" y2="397.48"/><line x1="507.33" y1="397.48" x2="507.33" y2="183.96"/><line x1="127.12" y1="388.12" x2="329.38" y2="493.58"/><line x1="127.12" y1="388.12" x2="127.12" y2="174.6"/><line x1="170.99" y1="369.57" x2="373.26" y2="475.04"/><line x1="170.99" y1="369.57" x2="170.99" y2="156.06"/><line x1="214.87" y1="351.03" x2="417.13" y2="456.49"/><line x1="214.87" y1="351.03" x2="214.87" y2="137.51"/><line x1="258.74" y1="332.48" x2="461.01" y2="437.94"/><line x1="258.74" y1="332.48" x2="258.74" y2="118.96"/><line x1="302.62" y1="313.94" x2="504.88" y2="419.4"/><line x1="302.62" y1="313.94" x2="302.62" y2="100.42"/><line x1="102.55" y1="398.51" x2="327.19" y2="303.55"/><line x1="327.19" y1="303.55" x2="529.45" y2="409.01"/><line x1="102.55" y1="354.93" x2="327.19" y2="259.97"/><line x1="327.19" y1="259.97" x2="529.45" y2="365.44"/><line x1="102.55" y1="311.36" x2="327.19" y2="216.4"/><line x1="327.19" y1="216.4" x2="529.45" y2="321.86"/><line x1="102.55" y1="267.78" x2="327.19" y2="172.82"/><line x1="327.19" y1="172.82" x2="529.45" y2="278.29"/><line x1="102.55" y1="224.21" x2="327.19" y2="129.25"/><line x1="327.19" y1="129.25" x2="529.45" y2="234.71"/></g>
<text x="145.28" y="479.93" text-anchor="middle" font-size="12" fill="#1f2937" font-weight="600">x</text>
<text x="469.72" y="487.91" text-anchor="middle" font-size="12" fill="#1f2937" font-weight="600">y</text>
<text x="58.55" y="291.75" text-anchor="middle" font-size="12" fill="#1f2937" font-weight="600">z</text>
<g class="vector3" stroke="#2563eb" stroke-width="1.4" stroke-linecap="round"><line x1="324.74" y1="325.47" x2="278.05" y2="110.8"><title>(-2, 2, 0) → (-2, -2, 0.35)</title></line><polygon points="278.05,110.8 283.44,116.79 275.63,118.49" fill="#2563eb"/></g><g class="vector3" stroke="#2563eb" stroke-width="1.4" stroke-linecap="round"><line x1="280.86" y1="344.02" x2="245.23" y2="135.12"><title>(-2, 1, 0) → (-1, -2, 0.35)</title></line><polygon points="245.23,135.12 250.35,141.35 242.47,142.69" fill="#2563eb"/></g><g class="vector3" stroke="#2563eb" stroke-width="1.4" stroke-linecap="round"><line x1="364.24" y1="346.07" x2="329.84" y2="126.21"><title>(-1, 2, 0) → (-2, -1, 0.35)</title></line><polygon points="329.84,126.21 334.87,132.51 326.97,133.74" fill="#2563eb"/></g><g class="vector3" stroke="#2563eb" stroke-width="1.4" stroke-linecap="round"><line x1="236.99" y1="362.56" x2="212.42" y2="159.43"><title>(-2, 0, 0) → (0, -2, 0.35)</title></line><polygon points="212.42,159.43 217.23,165.9 209.29,166.86" fill="#2563eb"/></g><g class="vector3" stroke="#2563eb" stroke-width="1.4" stroke-linecap="round"><line x1="320.37" y1="364.61" x2="297.02" y2="150.52"><title>(-1, 1, 0) → (-1, -1, 0.35)</title></line><polygon points="297.02,150.52 301.76,157.05 293.81,157.91" fill="#2563eb"/></g><g class="vector3" stroke="#2563eb" stroke-width="1.4" stroke-linecap="round"><line x1="403.75" y1="366.67" x2="381.63" y2="141.61"><title>(0, 2, 0) → (-2, 0, 0.35)</title></line><polygon points="381.63,141.61 386.29,148.19 378.33,148.97" fill="#2563eb"/></g><g class="vector3" stroke="#2563eb" stroke-width="1.4" stroke-linecap="round"><line x1="193.12" y1="381.11" x2="179.61" y2="183.75"><title>(-2, -1, 0) → (1, -2, 0.35)</title></line><polygon points="179.61,183.75 184.08,190.46 176.09,191" fill="#2563eb"/></g><g class="vector3" stroke="#2563eb" stroke-width="1.4" stroke-linecap="round"><line x1="276.5" y1="383.16" x2="264.21" y2="174.84"><title>(-1, 0, 0) → (0, -1, 0.35)</title></line><polygon points="264.21,174.84 268.62,181.59 260.63,182.06" fill="#2563eb"/></g><g class="vector3" stroke="#2563eb" stroke-width="1.4" stroke-linecap="round"><line x1="359.87" y1="385.21" x2="348.81" y2="165.93"><title>(0, 1, 0) → (-1, 0, 0.35)</title></line><polygon points="348.81,165.93 353.16,172.72 345.17,173.12" fill="#2563eb"/></g><g class="vector3" stroke="#2563eb" stroke-width="1.4" stroke-linecap="round"><line x1="443.25" y1="387.26" x2="433.42" y2="157.02"><title>(1, 2, 0) → (-2, 1, 0.35)</title></line><polygon points="433.42,157.02 437.71,163.84 429.72,164.18" fill="#2563eb"/></g><g class="vector3" stroke="#2563eb" stroke-width="1.4" stroke-linecap="round"><line x1="149.24" y1="399.66" x2="146.79" y2="208.06"><title>(-2, -2, 0) → (2, -2, 0.35)</title></line><polygon points="146.79,208.06 150.88,215.01 142.88,215.11" fill="#2563eb"/></g><g class="vector3" stroke="#2563eb" stroke-width="1.4" stroke-linecap="round"><line x1="232.62" y1="401.71" x2="231.4" y2="199.15"><title>(-1, -1, 0) → (1, -1, 0.35)</title></line><polygon points="231.4,199.15 235.44,206.13 227.44,206.17" fill="#2563eb"/></g><g class="vector3" stroke="#2563eb" stroke-width="1.4" stroke-linecap="round"><line x1="316" y1="403.76" x2="316" y2="190.24"><title>(0, 0, 0) → (0, 0, 0.35)</title></line><polygon points="316,190.24 320,197.24 312,197.24" fill="#2563eb"/></g><g class="vector3" stroke="#2563eb" stroke-width="1.4" stroke-linecap="round"><line x1="399.38" y1="405.81" x2="400.6" y2="181.33"><title>(1, 1, 0) → (-1, 1, 0.35)</title></line><polygon points="400.6,181.33 404.56,188.35 396.56,188.31" fill="#2563eb"/></g><g class="vector3" stroke="#2563eb" stroke-width="1.4" stroke-linecap="round"><line x1="482.76" y1="407.86" x2="485.21" y2="172.42"><title>(2, 2, 0) → (-2, 2, 0.35)</title></line><polygon points="485.21,172.42 489.13,179.46 481.13,179.38" fill="#2563eb"/></g><g class="vector3" stroke="#2563eb" stroke-width="1.4" stroke-linecap="round"><line x1="188.75" y1="420.25" x2="198.58" y2="223.46"><title>(-1, -2, 0) → (2, -1, 0.35)</title></line><polygon points="198.58,223.46 202.23,230.65 194.24,230.26" fill="#2563eb"/></g><g class="vector3" stroke="#2563eb" stroke-width="1.4" stroke-linecap="round"><line x1="272.13" y1="422.31" x2="283.19" y2="214.55"><title>(0, -1, 0) → (1, 0, 0.35)</title></line><polygon points="283.19,214.55 286.81,221.76 278.82,221.33" fill="#2563eb"/></g><g class="vector3" stroke="#2563eb" stroke-width="1.4" stroke-linecap="round"><line x1="355.5" y1="424.36" x2="367.79" y2="205.65"><title>(1, 0, 0) → (0, 1, 0.35)</title></line><polygon points="367.79,205.65 371.39,212.86 363.4,212.41" fill="#2563eb"/></g><g class="vector3" stroke="#2563eb" stroke-width="1.4" stroke-linecap="round"><line x1="438.88" y1="426.41" x2="452.39" y2="196.74"><title>(2, 1, 0) → (-1, 2, 0.35)</title></line><polygon points="452.39,196.74 455.97,203.96 447.99,203.49" fill="#2563eb"/></g><g class="vector3" stroke="#2563eb" stroke-width="1.4" stroke-linecap="round"><line x1="228.25" y1="440.85" x2="250.37" y2="238.87"><title>(0, -2, 0) → (2, 0, 0.35)</title></line><polygon points="250.37,238.87 253.59,246.26 245.64,245.39" fill="#2563eb"/></g><g class="vector3" stroke="#2563eb" stroke-width="1.4" stroke-linecap="round"><line x1="311.63" y1="442.9" x2="334.98" y2="229.96"><title>(1, -1, 0) → (1, 1, 0.35)</title></line><polygon points="334.98,229.96 338.19,237.35 330.24,236.48" fill="#2563eb"/></g><g class="vector3" stroke="#2563eb" stroke-width="1.4" stroke-linecap="round"><line x1="395.01" y1="444.95" x2="419.58" y2="221.05"><title>(2, 0, 0) → (0, 2, 0.35)</title></line><polygon points="419.58,221.05 422.79,228.45 414.84,227.57" fill="#2563eb"/></g><g class="vector3" stroke="#2563eb" stroke-width="1.4" stroke-linecap="round"><line x1="267.76" y1="461.45" x2="302.16" y2="254.27"><title>(1, -2, 0) → (2, 1, 0.35)</title></line><polygon points="302.16,254.27 304.96,261.83 297.07,260.52" fill="#2563eb"/></g><g class="vector3" stroke="#2563eb" stroke-width="1.4" stroke-linecap="round"><line x1="351.14" y1="463.5" x2="386.77" y2="245.36"><title>(2, -1, 0) → (1, 2, 0.35)</title></line><polygon points="386.77,245.36 389.59,252.92 381.69,251.63" fill="#2563eb"/></g><g class="vector3" stroke="#2563eb" stroke-width="1.4" stroke-linecap="round"><line x1="307.26" y1="482.05" x2="353.95" y2="269.68"><title>(2, -2, 0) → (2, 2, 0.35)</title></line><polygon points="353.95,269.68 356.36,277.37 348.54,275.66" fill="#2563eb"/></g>
</svg>
